<?xml version="1.0" encoding="UTF-8" standalone="no"?>
<!DOCTYPE svg PUBLIC "-//W3C//DTD SVG 1.0//EN" "http://www.w3.org/TR/2001/REC-SVG-20010904/DTD/svg10.dtd">
<!-- Created with Inkscape (http://www.inkscape.org/) -->
<svg
   xmlns:svg="http://www.w3.org/2000/svg"
   xmlns="http://www.w3.org/2000/svg"
   version="1.0"
   width="800"
   height="170"
   id="svg2">
  <defs
     id="defs4" />
  <g
     id="layer1">
    <path
       d="M 438.63514,9.3577568 C 421.92686,10.219608 410.26639,15.981363 400.80974,45.21122 L 393.48539,71.512297 L 376.14768,71.512297 L 370.69283,91.078044 L 388.00493,91.078044 L 369.0026,159.22523 L 403.67802,159.22523 L 422.68035,91.078044 L 440.01806,91.078044 L 445.47291,71.512297 L 428.1352,71.512297 L 433.20591,53.329469 C 434.09383,50.146181 435.35148,48.015576 436.97052,46.901455 C 438.58938,45.787539 441.31589,45.211335 445.1656,45.21122 L 750.86759,45.21122 L 741.98106,77.069584 C 740.71703,75.69009 739.65422,74.565488 738.80546,73.663505 C 737.95654,72.761686 737.15407,72.020105 736.42377,71.435468 C 735.69327,70.85102 734.9791,70.348842 734.27256,69.924501 C 733.56585,69.500356 732.73892,69.021567 731.78843,68.490362 C 728.26918,66.793514 724.10604,65.929491 719.29094,65.929401 C 713.37583,65.929491 707.51695,67.079694 701.72274,69.361089 C 695.92842,71.642656 690.5855,74.85166 685.71673,78.990305 C 680.48354,83.446477 676.23283,88.332882 672.96314,93.639006 C 669.6934,98.945261 667.02529,105.36163 664.92172,112.89744 C 662.64355,121.06808 661.65143,128.01326 661.97661,133.74367 C 662.30177,139.47411 664.06034,144.52974 667.2522,148.87895 C 669.93011,152.59346 673.54603,155.46563 678.05945,157.535 C 682.57279,159.60436 687.43032,160.65937 692.65694,160.65937 C 697.05643,160.65937 701.53481,159.89217 706.07637,158.40573 C 710.61782,156.91929 714.71306,154.81371 718.36899,152.05454 C 718.876,151.73719 719.40141,151.35196 719.93118,150.92772 C 720.4608,150.5035 721.05429,150.02469 721.74946,149.49358 L 719.06045,159.22523 L 753.71026,159.22523 L 788.66739,33.942989 L 795.30028,9.3577568 L 438.63514,9.3577568 z M 220.54365,28.385702 C 215.72842,28.385833 211.29476,29.70302 207.25226,32.355193 C 203.20965,35.007603 200.66118,38.239988 199.59498,42.061238 C 198.47032,46.093216 199.17402,49.471431 201.72058,52.177036 C 204.26703,54.882862 207.9431,56.223454 212.75832,56.223356 C 217.71195,56.223454 222.25839,54.882871 226.38264,52.177036 C 230.50676,49.471423 233.1234,46.140001 234.21918,42.214895 C 234.75013,40.304328 234.79192,38.50995 234.37284,36.811266 C 233.9536,35.11282 233.12903,33.653055 231.88871,32.432022 C 230.64824,31.211258 229.07579,30.228644 227.15093,29.486916 C 225.22592,28.745441 223.02041,28.385841 220.54365,28.385702 z M 326.08088,65.929401 C 317.00041,65.929491 308.63501,68.060703 300.98345,72.306195 C 298.53622,73.685861 296.45534,75.026453 294.7091,76.352515 C 292.96271,77.67874 290.60487,79.692959 287.66645,82.345165 L 291.84082,67.363539 L 257.1654,67.363539 L 231.55578,159.22523 L 266.20559,159.22523 L 280.5982,107.64747 C 281.66491,103.8294 282.82843,100.83479 284.0555,98.658491 C 285.28242,96.482321 287.01824,94.542112 289.27986,92.845108 C 291.03846,91.46559 293.14154,90.340397 295.57982,89.490248 C 298.01796,88.64023 300.41212,88.209849 302.75052,88.209767 C 304.67733,88.209841 306.45264,88.521623 308.07732,89.106104 C 309.70182,89.690716 310.92732,90.408908 311.79071,91.257312 C 312.95332,92.530089 313.61299,93.798884 313.73704,95.073145 C 313.8609,96.347528 313.45408,98.670743 312.50778,102.06457 L 296.55299,159.22523 L 330.99793,159.22523 L 349.92343,91.410969 C 350.39648,89.714097 350.78131,88.324482 351.07586,87.262211 C 351.37436,86.200072 351.57907,85.265858 351.66489,84.470763 C 351.75046,83.6758 351.80431,82.983217 351.84415,82.345165 C 351.88371,81.707268 351.83575,80.890055 351.6905,79.937861 C 351.45562,76.327077 349.7447,73.357484 346.54296,71.025714 C 341.85491,67.628674 335.02261,65.929491 326.08088,65.929401 z M 515.41278,65.929401 C 507.57074,65.929491 500.02876,67.103075 492.77388,69.437918 C 485.51887,71.772925 478.9083,75.05371 472.97764,79.297621 C 467.0469,83.541679 461.93409,88.572293 457.63748,94.356075 C 453.3408,100.14 450.24092,106.48618 448.31558,113.38402 C 446.33186,120.49245 445.831,126.93543 446.83022,132.71928 C 447.82939,138.50316 450.12686,143.45975 453.71921,147.59847 C 457.31155,151.73721 462.12716,154.94621 468.16303,157.22768 C 474.19882,159.50917 481.27854,160.65937 489.39341,160.65937 C 504.38876,160.65937 517.76444,156.82575 529.52368,149.18627 C 536.10422,144.8338 541.75801,139.49361 546.47724,133.18025 C 551.19621,126.86694 554.53622,120.20955 556.4906,113.20475 C 558.41582,106.30692 558.83943,99.986331 557.77108,94.202418 C 556.7025,88.418627 554.34753,83.41141 550.70283,79.220792 C 547.0579,75.030329 542.26221,71.772917 536.31022,69.437918 C 530.35801,67.103083 523.38897,65.929491 515.41278,65.929401 z M 661.82296,65.929401 C 659.07312,65.929491 656.69405,66.026889 654.65226,66.185497 C 652.61026,66.344268 650.67618,66.632071 648.83888,67.056224 C 647.00139,67.480557 645.22923,68.00614 643.53769,68.64402 C 641.84596,69.282089 640.02752,70.120486 638.08284,71.179372 C 636.46921,72.027939 635.04399,72.84353 633.80604,73.586676 C 632.56791,74.329986 631.34383,75.119975 630.14386,75.96837 C 628.94374,76.816921 627.74916,77.774508 626.55851,78.836647 C 625.36772,79.898934 624.02682,81.166123 622.51219,82.65248 L 626.76339,67.363539 L 592.08797,67.363539 L 566.47835,159.22523 L 601.12816,159.22523 L 614.24029,112.2572 L 615.21345,108.74868 C 616.81067,103.01669 620.64655,98.851723 626.73778,96.251187 C 632.82889,93.650774 641.73136,92.358583 653.423,92.358525 L 654.44739,92.358525 L 661.82296,65.929401 z M 192.52673,67.363539 L 166.8915,159.22523 L 201.56692,159.22523 L 227.17654,67.363539 L 192.52673,67.363539 z M 506.88477,94.560952 C 507.15521,94.545922 507.43302,94.560952 507.70428,94.560952 C 516.38459,94.560952 522.1038,102.32809 520.48348,111.92427 C 518.86318,121.52046 510.49436,129.3132 501.81407,129.3132 C 493.13375,129.31319 487.41455,121.52045 489.03487,111.92427 C 490.60457,102.62798 498.5012,95.026851 506.88477,94.560952 z M 715.09096,94.560952 C 715.3614,94.545922 715.6136,94.560952 715.88486,94.560952 C 724.56515,94.560952 730.30999,102.32809 728.68967,111.92427 C 727.06934,121.52046 718.70055,129.3132 710.02026,129.3132 C 701.33996,129.31319 695.62073,121.52045 697.24106,111.92427 C 698.81073,102.62798 706.70738,95.026851 715.09096,94.560952 z"
       id="text3406"
       style="font-size:221.14651489px;font-style:italic;font-variant:normal;font-weight:normal;font-stretch:normal;text-align:start;line-height:100%;writing-mode:lr-tb;text-anchor:start;opacity:1;fill:#273c8a;fill-opacity:1;stroke:none;stroke-width:1px;stroke-linecap:butt;stroke-linejoin:miter;stroke-opacity:1;font-family:DigiGrotesk LT BoldCondensed;-inkscape-font-specification:DigiGrotesk LT BoldCondensed Italic" />
    <path
       d="M 557.31011,13.019932 L 546.16993,13.096761 C 543.73236,13.096785 541.56712,13.487232 539.7163,14.326022 C 537.83316,15.179491 536.34509,16.601845 535.31145,18.449171 C 534.37179,20.128506 533.70563,21.40325 533.3139,22.393052 C 532.94206,23.332535 532.44495,24.809403 531.75171,26.849125 C 531.01036,29.029835 530.41255,30.938067 530.03587,32.585679 C 529.64774,34.28329 529.57571,35.738711 529.93343,37.016143 C 530.28174,38.26 531.08195,39.312232 532.21269,39.858811 C 533.22672,40.348991 534.4512,40.621117 535.90047,40.780757 C 537.31319,40.936357 538.80889,41.036861 540.38215,41.036853 L 541.07361,41.036853 L 546.68212,41.036853 C 547.75727,41.036853 548.88778,41.010514 550.06259,40.985634 C 551.20375,40.961458 552.13237,40.932579 552.95647,40.857586 C 552.99249,40.857586 553.02303,40.857815 553.05891,40.857586 C 555.62966,40.841105 557.87812,40.232367 559.66619,39.013693 C 561.44317,37.802518 562.82395,36.078675 563.78934,33.917379 C 564.69518,31.889188 565.44136,29.948889 566.0686,28.103996 L 566.3503,27.310098 L 566.65762,26.413762 C 567.54039,23.815422 568.09818,21.646751 568.29664,19.883309 C 568.49509,18.119868 568.39294,16.6845 567.60518,15.580894 C 566.82287,14.485064 565.50991,13.931954 563.81495,13.557734 C 562.12,13.183514 559.97334,13.01994 557.31011,13.019932 z M 618.37441,13.019932 L 607.23423,13.096761 C 604.79666,13.096785 602.63144,13.48724 600.7806,14.326022 C 598.89747,15.179482 597.40939,16.601836 596.37575,18.449171 C 595.43609,20.128506 594.76993,21.403234 594.3782,22.393052 C 594.00636,23.332527 593.50924,24.809395 592.81601,26.849125 C 592.07466,29.029835 591.47684,30.938059 591.10017,32.585679 C 590.71204,34.283281 590.63998,35.738694 590.99773,37.016143 C 591.34604,38.259992 592.14624,39.312232 593.27699,39.858811 C 594.29101,40.348983 595.51549,40.621117 596.96477,40.780757 C 598.37749,40.936357 599.87318,41.036861 601.44645,41.036853 L 602.13791,41.036853 L 607.74642,41.036853 C 608.82157,41.036853 609.92683,41.010506 611.10128,40.985634 C 612.24243,40.961458 613.19281,40.932833 614.02077,40.857586 C 614.05679,40.857586 614.08733,40.857815 614.12321,40.857586 C 616.69396,40.841105 618.94241,40.232367 620.73049,39.013693 C 622.50748,37.802518 623.88828,36.078692 624.85364,33.917379 C 625.75948,31.889188 626.50565,29.94888 627.1329,28.103996 L 627.4146,27.310098 L 627.72192,26.413762 C 628.60469,23.815422 629.16248,21.646751 629.36094,19.883309 C 629.55939,18.119868 629.45724,16.6845 628.66948,15.580894 C 627.88717,14.485064 626.57421,13.931954 624.87925,13.557734 C 623.1843,13.183514 621.03763,13.01994 618.37441,13.019932 z M 716.33851,14.249194 C 714.67262,14.798633 713.24809,15.724553 712.16414,17.040642 C 710.36101,19.307163 709.23727,22.040491 709.14221,24.928404 C 709.21937,25.924597 709.63249,26.878332 710.34586,27.540585 C 711.66263,28.763061 713.62248,29.461322 716.13364,29.461306 L 728.52869,29.461306 C 728.53723,29.461396 728.54576,29.461396 728.5543,29.461306 C 730.46558,29.461322 731.68482,29.810703 731.90916,29.973498 C 731.90296,29.968999 731.95336,29.935055 731.96038,30.280814 C 731.9674,30.626572 731.85835,31.242572 731.57623,32.073487 C 731.13913,33.359286 730.56481,34.172713 729.96283,34.608839 C 729.36255,35.043703 728.19465,35.471207 726.4287,35.684443 L 711.5239,35.684443 C 711.19153,35.57712 711.00993,35.144002 710.96049,35.095422 C 710.91105,35.046841 710.96199,35.101101 710.96049,35.069812 C 710.94641,34.77606 711.08314,33.885959 711.49829,32.662508 C 711.49838,32.653969 711.49838,32.645438 711.49829,32.636899 L 711.67756,32.099097 C 711.79428,31.744209 711.73462,31.354926 711.517,31.051274 L 706.42759,31.051274 C 705.48821,33.81685 705.064,36.153292 705.78735,37.810041 C 706.47344,39.381406 708.15433,40.195161 710.21781,40.473441 C 712.09613,40.726743 713.49054,40.893382 714.49462,40.934414 C 715.4607,40.97389 716.88141,40.985625 718.77143,40.985634 L 720.76898,40.985634 C 722.70002,40.985634 724.5276,40.936316 726.24943,40.780757 C 728.01254,40.621469 729.62649,40.266704 731.06404,39.705153 C 732.55351,39.123302 733.80185,38.216034 734.75183,37.041753 C 735.68153,35.892459 736.39769,34.477874 736.95425,32.841775 C 737.79657,30.361126 738.03321,28.347259 737.00547,26.849125 C 736.12089,25.559892 734.6119,24.847076 732.83111,24.646698 L 717.77265,24.646698 C 716.29438,24.646714 715.45348,23.94683 715.16047,23.699142 C 715.09381,23.642801 715.02604,23.60471 715.00681,23.314998 C 714.98759,23.025286 715.05945,22.529328 715.28852,21.85525 C 715.5525,21.078611 715.86856,20.438296 716.21046,19.960138 C 716.45699,19.615347 716.92854,19.263516 717.72143,18.961363 L 735.03353,18.756486 C 735.0506,18.756863 735.06768,18.756863 735.08475,18.756486 C 735.16612,18.799519 735.17186,18.765788 735.2128,19.063802 C 735.23866,19.25228 735.16215,19.980536 734.80305,21.035742 C 734.67607,21.393785 734.7307,21.791181 734.94957,22.101676 L 740.05302,22.101676 C 740.85475,19.744632 741.06047,17.463786 740.18107,15.913819 C 739.34696,14.443982 737.70868,14.461372 735.69938,14.249194 L 716.33851,14.249194 z M 480.38281,13.276028 L 478.99139,18.193075 L 480.3276,18.193075 L 491.36535,18.193075 L 483.69934,40.780757 L 489.21778,40.780757 L 496.87141,18.193075 L 509.61637,18.193075 L 511.27822,13.276028 C 501.13939,13.275225 490.2256,13.276028 480.38281,13.276028 z M 662.8669,13.276028 L 653.5726,40.780757 L 678.93191,40.780757 L 680.53056,35.88932 L 672.33023,35.88932 L 660.74003,35.88932 L 668.42061,13.276028 L 662.8669,13.276028 z M 552.4955,18.039417 L 552.52111,18.039417 L 558.38571,18.090636 C 559.17638,18.090661 559.90256,18.110091 560.53692,18.167465 C 561.15178,18.223142 561.75373,18.335177 562.30398,18.50039 C 562.6282,18.597772 562.67384,18.631388 562.79057,18.961363 C 562.87916,19.211919 562.90677,19.957286 562.66252,21.010132 C 562.40601,22.115517 562.01599,23.442399 561.48448,25.005233 L 559.66619,30.152766 C 559.0061,32.094909 558.22988,33.494472 557.46377,34.327133 C 556.77221,35.078704 555.68295,35.577792 554.00647,35.735662 C 552.17496,35.908144 550.40304,35.991758 548.65406,35.991758 L 547.86016,35.991758 L 545.50408,35.991758 L 539.10167,35.88932 C 539.09313,35.88923 539.0846,35.88923 539.07606,35.88932 C 537.69214,35.88932 536.67423,35.761239 536.07974,35.556395 C 535.48524,35.351551 535.41512,35.196041 535.38828,35.095422 C 535.24904,34.573395 535.46459,32.450534 536.5151,29.358868 L 537.15534,27.514975 L 538.53826,23.750361 C 538.53835,23.741822 538.53835,23.733291 538.53826,23.724752 C 539.43903,21.072472 540.50119,19.529241 541.22727,19.063802 C 542.01313,18.56005 543.83897,18.167481 546.60529,18.167465 C 546.61383,18.167555 546.62236,18.167555 546.6309,18.167465 L 552.4955,18.039417 z M 613.5598,18.039417 L 613.58541,18.039417 L 619.45001,18.090636 C 620.24068,18.090661 620.96683,18.110091 621.60122,18.167465 C 622.21607,18.223142 622.818,18.335177 623.36828,18.50039 C 623.69251,18.597772 623.73819,18.631478 623.85487,18.961363 C 623.94348,19.211952 623.9711,19.957319 623.72682,21.010132 C 623.47031,22.115509 623.08028,23.44239 622.54878,25.005233 L 620.73049,30.152766 C 620.0704,32.094925 619.29419,33.494489 618.52807,34.327133 C 617.83651,35.078704 616.74724,35.577792 615.07077,35.735662 C 613.24026,35.908046 611.44176,35.991758 609.69275,35.991758 L 608.92446,35.991758 L 606.56838,35.991758 L 600.16597,35.88932 C 600.15743,35.88923 600.1489,35.88923 600.14036,35.88932 C 598.75644,35.88932 597.73854,35.761239 597.14404,35.556395 C 596.54953,35.351551 596.47941,35.196025 596.45258,35.095422 C 596.31334,34.573395 596.52887,32.450526 597.5794,29.358868 L 598.21964,27.514975 L 599.60256,23.750361 C 599.60265,23.741822 599.60265,23.733291 599.60256,23.724752 C 600.50332,21.072481 601.56551,19.529249 602.29157,19.063802 C 603.07744,18.56005 604.90325,18.167481 607.66959,18.167465 C 607.67813,18.167555 607.68666,18.167555 607.6952,18.167465 L 613.5598,18.039417 z"
       id="path3430"
       style="font-size:45.9838829px;font-style:italic;font-variant:normal;font-weight:normal;font-stretch:normal;text-align:start;line-height:100%;writing-mode:lr-tb;text-anchor:start;fill:#ffffff;fill-opacity:1;stroke:none;stroke-width:1px;stroke-linecap:butt;stroke-linejoin:miter;stroke-opacity:1;font-family:Eurostile Extended;-inkscape-font-specification:Eurostile Extended Italic" />
    <path
       d="M 98.573155,67.131418 C 106.28071,67.131511 112.41002,66.337388 116.96115,64.749058 C 120.20213,63.559986 123.16666,61.677476 125.85476,59.101525 C 128.54258,56.525775 130.31031,53.720151 131.15795,50.684651 C 132.63489,45.40003 131.24685,41.173459 126.99378,38.004923 C 125.13929,36.682852 122.7532,35.724469 119.83552,35.129761 C 116.91757,34.535305 113.06276,34.238009 108.27107,34.237886 L 84.379904,34.237886 L 75.199327,67.131418 L 98.573155,67.131418 z M 82.258748,131.12868 C 87.222907,131.12872 91.407388,130.86267 94.812221,130.33054 C 100.71942,129.40745 105.94971,127.22866 110.50311,123.79415 C 115.05626,120.35973 117.9579,116.39718 119.20803,111.90653 C 120.86627,105.96478 119.41686,101.34216 114.85981,98.03864 C 110.30249,94.735245 103.14325,93.083519 93.382065,93.083445 L 67.954598,93.083445 L 57.340768,131.12868 L 82.258748,131.12868 z M 46.895283,4.7183576 L 121.90005,4.7183576 C 129.43513,4.7185159 135.70081,4.8172765 140.69712,5.0146392 C 145.69312,5.2123187 149.94797,5.6083686 153.46166,6.2027961 C 156.97501,6.7975331 160.03084,7.6561546 162.62914,8.7786534 C 165.22709,9.9014543 167.97933,11.387915 170.88588,13.238022 C 175.85944,16.273565 179.29458,20.532389 181.19132,26.014503 C 183.08767,31.496883 183.18876,37.275422 181.4946,43.350121 C 178.1371,55.370873 169.49796,64.55163 155.57719,70.892408 C 152.84279,72.081659 150.33775,73.072295 148.0621,73.864308 C 145.78612,74.656502 143.50465,75.316587 141.2177,75.844572 C 138.93044,76.37273 136.38949,76.736533 133.59485,76.935984 C 130.79992,77.135607 127.58661,77.299874 123.95494,77.428786 C 127.85363,77.561894 131.2222,77.760423 134.06065,78.024379 C 136.89881,78.288494 139.44228,78.684544 141.6911,79.212537 C 143.9396,79.740687 146.05818,80.434026 148.04685,81.292569 C 150.03519,82.151262 152.12645,83.241665 154.32064,84.563777 C 166.33662,91.827837 170.44647,102.26225 166.6502,115.86706 C 163.07609,128.68186 154.61595,139.05177 141.26978,146.97684 C 137.1859,149.35518 132.83076,151.46847 128.20433,153.31671 C 123.57763,155.16495 118.63497,156.61714 113.37634,157.67328 C 110.45217,158.33438 107.70263,158.8302 105.12768,159.16075 C 102.5525,159.4913 99.729087,159.78859 96.657425,160.05263 C 93.585541,160.31666 90.243064,160.48193 86.63001,160.54844 C 83.016735,160.61496 78.641806,160.64821 73.505194,160.64821 L 3.3837033,160.64821 L 46.895283,4.7183576 z"
       id="text3453"
       style="font-size:275.27313232px;font-style:italic;font-variant:normal;font-weight:normal;font-stretch:normal;text-align:start;line-height:100%;writing-mode:lr-tb;text-anchor:start;fill:#273c8a;fill-opacity:1;stroke:none;stroke-width:1px;stroke-linecap:butt;stroke-linejoin:miter;stroke-opacity:1;font-family:DigiGrotesk LT BoldCondensed;-inkscape-font-specification:DigiGrotesk LT BoldCondensed Italic" />
  </g>
</svg>
